<?xml version="1.0" encoding="UTF-8"?>
<svg width="48px" height="48px" viewBox="0 0 48 48" version="1.1" xmlns="http://www.w3.org/2000/svg">
    <title>Azure Virtual Machine</title>
    <g stroke="none" stroke-width="1" fill="none" fill-rule="evenodd">
        <path d="M6,8 L42,8 C43.105,8 44,8.895 44,10 L44,32 C44,33.105 43.105,34 42,34 L6,34 C4.895,34 4,33.105 4,32 L4,10 C4,8.895 4.895,8 6,8 Z M6,10 L6,32 L42,32 L42,10 L6,10 Z" fill="#0078D4"></path>
        <path d="M17,38 L31,38 C31.552,38 32,38.448 32,39 C32,39.552 31.552,40 31,40 L17,40 C16.448,40 16,39.552 16,39 C16,38.448 16.448,38 17,38 Z M22,34 L26,34 L26,38 L22,38 L22,34 Z" fill="#0078D4"></path>
        <path d="M14,15 L28,15 L28,17 L14,17 L14,15 Z M14,20 L28,20 L28,22 L14,22 L14,20 Z M14,25 L23,25 L23,27 L14,27 L14,25 Z" fill="#50E6FF"></path>
        <circle fill="#50E6FF" cx="33" cy="16" r="3"></circle>
    </g>
</svg>
