<svg xmlns="http://www.w3.org/2000/svg" viewBox="0 0 48 48" width="48" height="48">
  <defs>
    <linearGradient id="g" x1="24" y1="4" x2="24" y2="44" gradientUnits="userSpaceOnUse">
      <stop offset="0" stop-color="#FFF200"/>
      <stop offset="1" stop-color="#F15A29"/>
    </linearGradient>
  </defs>
  <path fill="url(#g)" d="M24 4l3.1 2.2a9 9 0 0 1 6.9 2.1l3.7-.8-1 3.6a9 9 0 0 1 1.4 3.2l2.9 2.4-2.7 1.6c0 .5 0 1-.1 1.5l1.9 2.9-3 .9a9 9 0 0 1-1.5 2.4l.4 3.4-3.2-.9a9 9 0 0 1-2.6 1.4l-1.4 3.3-2.3-2.2q-.8.1-1.5.1a11 11 0 1 1 0-22c.9 0 1.7.1 2.5.3z"/>
  <circle cx="22.5" cy="20.5" r="6.5" fill="#fff"/>
  <circle cx="22.5" cy="20.5" r="3.3" fill="#F15A29"/>
</svg>
